<svg width="24" height="24" fill="none" xmlns="http://www.w3.org/2000/svg"><path opacity=".01" fill="#ECF1F8" d="M4 4h16v16H4z"/><mask id="a" fill="#fff"><path fill-rule="evenodd" clip-rule="evenodd" d="M14 6a2 2 0 11-4 0 2 2 0 014 0zm0 6a2 2 0 11-4 0 2 2 0 014 0zm-2 8a2 2 0 100-4 2 2 0 000 4z"/></mask><path d="M12 10a4 4 0 004-4h-4v4zM8 6a4 4 0 004 4V6H8zm4-4a4 4 0 00-4 4h4V2zm4 4a4 4 0 00-4-4v4h4zm-4 10a4 4 0 004-4h-4v4zm-4-4a4 4 0 004 4v-4H8zm4-4a4 4 0 00-4 4h4V8zm4 4a4 4 0 00-4-4v4h4zm-4 6v4a4 4 0 004-4h-4zm0 0h4a4 4 0 00-4-4v4zm0 0v-4a4 4 0 00-4 4h4zm0 0H8a4 4 0 004 4v-4z" fill="#3E4056" mask="url(#a)"/><mask id="c" maskUnits="userSpaceOnUse" x="10" y="4" width="4" height="16"><g fill="#fff"><mask id="b"><path fill-rule="evenodd" clip-rule="evenodd" d="M14 6a2 2 0 11-4 0 2 2 0 014 0zm0 6a2 2 0 11-4 0 2 2 0 014 0zm-2 8a2 2 0 100-4 2 2 0 000 4z"/></mask><path fill-rule="evenodd" clip-rule="evenodd" d="M14 6a2 2 0 11-4 0 2 2 0 014 0zm0 6a2 2 0 11-4 0 2 2 0 014 0zm-2 8a2 2 0 100-4 2 2 0 000 4z"/><path d="M12 10a4 4 0 004-4h-4v4zM8 6a4 4 0 004 4V6H8zm4-4a4 4 0 00-4 4h4V2zm4 4a4 4 0 00-4-4v4h4zm-4 10a4 4 0 004-4h-4v4zm-4-4a4 4 0 004 4v-4H8zm4-4a4 4 0 00-4 4h4V8zm4 4a4 4 0 00-4-4v4h4zm-4 6v4a4 4 0 004-4h-4zm0 0h4a4 4 0 00-4-4v4zm0 0v-4a4 4 0 00-4 4h4zm0 0H8a4 4 0 004 4v-4z" mask="url(#b)"/></g></mask><g mask="url(#c)"><path fill="#3E4056" d="M0 0h24v24H0z"/></g></svg>